<svg xmlns="http://www.w3.org/2000/svg" viewBox="0 0 1445.67 1583.04"><defs><style>.cls-1{fill:#fff;}</style></defs><g id="Layer_2" data-name="Layer 2"><g id="Layer_1-2" data-name="Layer 1"><g id="g500"><path id="path502" class="cls-1" d="M869.6,598.34h0a8.25,8.25,0,0,1,8.25-8.25h13.26a8.25,8.25,0,1,1,0,16.49H877.85a8.24,8.24,0,0,1-8.25-8.24"/></g><g id="g504"><path id="path506" class="cls-1" d="M869.6,633.31h0a8.24,8.24,0,0,1,8.25-8.24h13.26a8.25,8.25,0,1,1,0,16.49H877.85a8.25,8.25,0,0,1-8.25-8.25"/></g><g id="g508"><path id="path510" class="cls-1" d="M869.6,668.29h0a8.25,8.25,0,0,1,8.25-8.25h13.26a8.25,8.25,0,1,1,0,16.49H877.85a8.24,8.24,0,0,1-8.25-8.24"/></g><g id="g512"><path id="path514" class="cls-1" d="M869.6,703.26h0a8.25,8.25,0,0,1,8.25-8.25h13.26a8.25,8.25,0,0,1,0,16.5H877.85a8.25,8.25,0,0,1-8.25-8.25"/></g><g id="g516"><path id="path518" class="cls-1" d="M869.6,738.23h0a8.24,8.24,0,0,1,8.25-8.24h13.26a8.25,8.25,0,1,1,0,16.49H877.85a8.25,8.25,0,0,1-8.25-8.25"/></g><g id="g520"><path id="path522" class="cls-1" d="M869.6,773.21h0a8.25,8.25,0,0,1,8.25-8.25h13.26a8.25,8.25,0,1,1,0,16.49H877.85a8.24,8.24,0,0,1-8.25-8.24"/></g><g id="g524"><path id="path526" class="cls-1" d="M869.6,808.18h0a8.25,8.25,0,0,1,8.25-8.25h13.26a8.26,8.26,0,0,1,8.25,8.25h0a8.26,8.26,0,0,1-8.25,8.25H877.85a8.25,8.25,0,0,1-8.25-8.25"/></g><g id="g528"><path id="path530" class="cls-1" d="M869.6,843.15h0a8.24,8.24,0,0,1,8.25-8.24h13.26a8.25,8.25,0,0,1,8.25,8.24h0a8.25,8.25,0,0,1-8.25,8.25H877.85a8.25,8.25,0,0,1-8.25-8.25"/></g><g id="g532"><path id="path534" class="cls-1" d="M843,541.08h0a8.25,8.25,0,0,1,8.25,8.25v13.26a8.25,8.25,0,0,1-8.25,8.24h0a8.25,8.25,0,0,1-8.25-8.24V549.33a8.25,8.25,0,0,1,8.25-8.25"/></g><g id="g536"><path id="path538" class="cls-1" d="M808,541.08h0a8.24,8.24,0,0,1,8.24,8.25v13.26a8.24,8.24,0,0,1-8.24,8.24h0a8.24,8.24,0,0,1-8.25-8.24V549.33a8.25,8.25,0,0,1,8.25-8.25"/></g><g id="g540"><path id="path542" class="cls-1" d="M773,541.08h0a8.25,8.25,0,0,1,8.25,8.25v13.26a8.25,8.25,0,0,1-16.49,0V549.33a8.24,8.24,0,0,1,8.24-8.25"/></g><g id="g544"><path id="path546" class="cls-1" d="M738,541.08h0a8.25,8.25,0,0,1,8.25,8.25v13.26a8.25,8.25,0,0,1-16.5,0V549.33a8.25,8.25,0,0,1,8.25-8.25"/></g><g id="g548"><path id="path550" class="cls-1" d="M703.07,541.08h0a8.24,8.24,0,0,1,8.24,8.25v13.26a8.25,8.25,0,0,1-16.49,0V549.33a8.25,8.25,0,0,1,8.25-8.25"/></g><g id="g552"><path id="path554" class="cls-1" d="M668.09,541.08h0a8.25,8.25,0,0,1,8.25,8.25v13.26a8.25,8.25,0,0,1-16.49,0V549.33a8.24,8.24,0,0,1,8.24-8.25"/></g><g id="g556"><path id="path558" class="cls-1" d="M633.12,541.08h0a8.24,8.24,0,0,1,8.24,8.25v13.26a8.25,8.25,0,0,1-16.49,0V549.33a8.25,8.25,0,0,1,8.25-8.25"/></g><g id="g560"><path id="path562" class="cls-1" d="M598.14,541.08h0a8.25,8.25,0,0,1,8.25,8.25v13.26a8.25,8.25,0,0,1-16.49,0V549.33a8.24,8.24,0,0,1,8.24-8.25"/></g><g id="g564"><path id="path566" class="cls-1" d="M843,867.74h0a8.25,8.25,0,0,1,8.25,8.24v13.26a8.25,8.25,0,0,1-8.25,8.25h0a8.25,8.25,0,0,1-8.25-8.25V876a8.25,8.25,0,0,1,8.25-8.24"/></g><g id="g568"><path id="path570" class="cls-1" d="M808,867.74h0a8.24,8.24,0,0,1,8.24,8.24v13.26a8.24,8.24,0,0,1-8.24,8.25h0a8.25,8.25,0,0,1-8.25-8.25V876a8.24,8.24,0,0,1,8.25-8.24"/></g><g id="g572"><path id="path574" class="cls-1" d="M773,867.74h0a8.24,8.24,0,0,1,8.25,8.24v13.26a8.25,8.25,0,1,1-16.49,0V876a8.24,8.24,0,0,1,8.24-8.24"/></g><g id="g576"><path id="path578" class="cls-1" d="M738,867.74h0a8.25,8.25,0,0,1,8.25,8.24v13.26a8.25,8.25,0,0,1-16.5,0V876a8.24,8.24,0,0,1,8.25-8.24"/></g><g id="g580"><path id="path582" class="cls-1" d="M703.07,867.74h0a8.24,8.24,0,0,1,8.24,8.24v13.26a8.25,8.25,0,1,1-16.49,0V876a8.24,8.24,0,0,1,8.25-8.24"/></g><g id="g584"><path id="path586" class="cls-1" d="M668.09,867.74h0a8.24,8.24,0,0,1,8.25,8.24v13.26a8.25,8.25,0,1,1-16.49,0V876a8.24,8.24,0,0,1,8.24-8.24"/></g><g id="g588"><path id="path590" class="cls-1" d="M633.12,867.74h0a8.24,8.24,0,0,1,8.24,8.24v13.26a8.25,8.25,0,1,1-16.49,0V876a8.24,8.24,0,0,1,8.25-8.24"/></g><g id="g592"><path id="path594" class="cls-1" d="M598.14,867.74h0a8.24,8.24,0,0,1,8.25,8.24v13.26a8.25,8.25,0,1,1-16.49,0V876a8.24,8.24,0,0,1,8.24-8.24"/></g><g id="g596"><path id="path598" class="cls-1" d="M546.31,598.34h0a8.25,8.25,0,0,1,8.25-8.25h13.26a8.25,8.25,0,1,1,0,16.49H554.56a8.24,8.24,0,0,1-8.25-8.24"/></g><g id="g600"><path id="path602" class="cls-1" d="M546.31,633.31h0a8.24,8.24,0,0,1,8.25-8.24h13.26a8.25,8.25,0,1,1,0,16.49H554.56a8.25,8.25,0,0,1-8.25-8.25"/></g><g id="g604"><path id="path606" class="cls-1" d="M546.31,668.29h0a8.25,8.25,0,0,1,8.25-8.25h13.26a8.25,8.25,0,1,1,0,16.49H554.56a8.24,8.24,0,0,1-8.25-8.24"/></g><g id="g608"><path id="path610" class="cls-1" d="M546.31,703.26h0a8.25,8.25,0,0,1,8.25-8.25h13.26a8.25,8.25,0,0,1,0,16.5H554.56a8.25,8.25,0,0,1-8.25-8.25"/></g><g id="g612"><path id="path614" class="cls-1" d="M546.31,738.23h0a8.24,8.24,0,0,1,8.25-8.24h13.26a8.25,8.25,0,1,1,0,16.49H554.56a8.25,8.25,0,0,1-8.25-8.25"/></g><g id="g616"><path id="path618" class="cls-1" d="M546.31,773.21h0a8.25,8.25,0,0,1,8.25-8.25h13.26a8.25,8.25,0,1,1,0,16.49H554.56a8.24,8.24,0,0,1-8.25-8.24"/></g><g id="g620"><path id="path622" class="cls-1" d="M546.31,808.18h0a8.25,8.25,0,0,1,8.25-8.25h13.26a8.26,8.26,0,0,1,8.25,8.25h0a8.26,8.26,0,0,1-8.25,8.25H554.56a8.25,8.25,0,0,1-8.25-8.25"/></g><g id="g624"><path id="path626" class="cls-1" d="M546.31,843.15h0a8.24,8.24,0,0,1,8.25-8.24h13.26a8.25,8.25,0,0,1,8.25,8.24h0a8.25,8.25,0,0,1-8.25,8.25H554.56a8.25,8.25,0,0,1-8.25-8.25"/></g><g id="g628"><path id="path630" class="cls-1" d="M722.83,836.6A115.85,115.85,0,1,1,838.68,720.75,115.85,115.85,0,0,1,722.83,836.6M829.07,589.76H616.6a24.75,24.75,0,0,0-24.75,24.75V827a24.75,24.75,0,0,0,24.75,24.75H829.07A24.75,24.75,0,0,0,853.82,827V614.51a24.75,24.75,0,0,0-24.75-24.75"/></g><g id="g632"><path id="path634" class="cls-1" d="M953.38,710.93h0a8.68,8.68,0,0,1-8.68-8.69V517a8.68,8.68,0,1,1,17.36,0V702.24a8.68,8.68,0,0,1-8.68,8.69"/></g><g id="g636"><path id="path638" class="cls-1" d="M953.38,897.49h0a8.68,8.68,0,0,1-8.68-8.68V818a8.68,8.68,0,1,1,17.36,0v70.82a8.68,8.68,0,0,1-8.68,8.68"/></g><g id="g640"><path id="path642" class="cls-1" d="M953.38,793.35h0a8.68,8.68,0,0,1-8.68-8.69V775a8.68,8.68,0,0,1,17.36,0v9.62a8.68,8.68,0,0,1-8.68,8.69"/></g><g id="g644"><path id="path646" class="cls-1" d="M953.38,756.22h0a8.68,8.68,0,0,1-8.68-8.69V730.06a8.68,8.68,0,1,1,17.36,0v17.47a8.68,8.68,0,0,1-8.68,8.69"/></g><g id="g648"><path id="path650" class="cls-1" d="M492.29,710.93h0a8.69,8.69,0,0,1-8.69-8.69V517A8.69,8.69,0,1,1,501,517V702.24a8.68,8.68,0,0,1-8.68,8.69"/></g><g id="g652"><path id="path654" class="cls-1" d="M492.29,897.49h0a8.69,8.69,0,0,1-8.69-8.68V818A8.69,8.69,0,1,1,501,818v70.82a8.68,8.68,0,0,1-8.68,8.68"/></g><g id="g656"><path id="path658" class="cls-1" d="M492.29,793.35h0a8.69,8.69,0,0,1-8.69-8.69V775A8.69,8.69,0,0,1,501,775v9.62a8.68,8.68,0,0,1-8.68,8.69"/></g><g id="g660"><path id="path662" class="cls-1" d="M492.29,756.22h0a8.69,8.69,0,0,1-8.69-8.69V730.06a8.69,8.69,0,1,1,17.37,0v17.47a8.68,8.68,0,0,1-8.68,8.69"/></g><g id="g664"><path id="path666" class="cls-1" d="M525.22,633.89h0a8.68,8.68,0,0,1-8.68-8.68v-150a8.69,8.69,0,0,1,17.37,0V625.21a8.69,8.69,0,0,1-8.69,8.68"/></g><g id="g668"><path id="path670" class="cls-1" d="M525.22,897.49h0a8.68,8.68,0,0,1-8.68-8.68V781.57a8.69,8.69,0,0,1,17.37,0V888.81a8.69,8.69,0,0,1-8.69,8.68"/></g><g id="g672"><path id="path674" class="cls-1" d="M525.22,750.34h0a8.68,8.68,0,0,1-8.68-8.68V720.89a8.69,8.69,0,0,1,17.37,0v20.77a8.69,8.69,0,0,1-8.69,8.68"/></g><g id="g676"><path id="path678" class="cls-1" d="M525.22,697.88h0a8.68,8.68,0,0,1-8.68-8.68V657.33a8.69,8.69,0,0,1,17.37,0V689.2a8.69,8.69,0,0,1-8.69,8.68"/></g><g id="g680"><path id="path682" class="cls-1" d="M920.44,633.89h0a8.68,8.68,0,0,1-8.68-8.68v-150a8.69,8.69,0,0,1,17.37,0V625.21a8.69,8.69,0,0,1-8.69,8.68"/></g><g id="g684"><path id="path686" class="cls-1" d="M920.44,897.49h0a8.68,8.68,0,0,1-8.68-8.68V781.57a8.69,8.69,0,0,1,17.37,0V888.81a8.69,8.69,0,0,1-8.69,8.68"/></g><g id="g688"><path id="path690" class="cls-1" d="M920.44,750.34h0a8.68,8.68,0,0,1-8.68-8.68V720.89a8.69,8.69,0,0,1,17.37,0v20.77a8.69,8.69,0,0,1-8.69,8.68"/></g><g id="g692"><path id="path694" class="cls-1" d="M920.44,697.88h0a8.68,8.68,0,0,1-8.68-8.68V657.33a8.69,8.69,0,0,1,17.37,0V689.2a8.69,8.69,0,0,1-8.69,8.68"/></g><g id="g696"><path id="path698" class="cls-1" d="M459.35,534.41h0a8.68,8.68,0,0,1-8.68-8.68V443.89a8.69,8.69,0,0,1,17.37,0v81.84a8.69,8.69,0,0,1-8.69,8.68"/></g><g id="g700"><path id="path702" class="cls-1" d="M459.35,685.46h0a8.68,8.68,0,0,1-8.68-8.68v-54a8.69,8.69,0,1,1,17.37,0v54a8.69,8.69,0,0,1-8.69,8.68"/></g><g id="g704"><path id="path706" class="cls-1" d="M459.35,716.46h0a8.69,8.69,0,0,1-8.68-8.69v-4.48a8.69,8.69,0,1,1,17.37,0v4.48a8.69,8.69,0,0,1-8.69,8.69"/></g><g id="g708"><path id="path710" class="cls-1" d="M459.35,601.14h0a8.68,8.68,0,0,1-8.68-8.68V588A8.69,8.69,0,0,1,468,588v4.49a8.69,8.69,0,0,1-8.69,8.68"/></g><g id="g712"><path id="path714" class="cls-1" d="M459.35,571.08h0a8.68,8.68,0,0,1-8.68-8.68V551.55a8.69,8.69,0,0,1,17.37,0V562.4a8.69,8.69,0,0,1-8.69,8.68"/></g><g id="g716"><path id="path718" class="cls-1" d="M459.64,729.18h-.57a8.4,8.4,0,0,0-8.4,8.4V889.09a8.4,8.4,0,0,0,8.4,8.4h.57a8.4,8.4,0,0,0,8.4-8.4V737.58a8.4,8.4,0,0,0-8.4-8.4"/></g><g id="g720"><path id="path722" class="cls-1" d="M459.35,167.29h0a8.68,8.68,0,0,1-8.68-8.68v-44.2a8.69,8.69,0,0,1,17.37,0v44.2a8.69,8.69,0,0,1-8.69,8.68"/></g><g id="g724"><path id="path726" class="cls-1" d="M459.35,318.34h0a8.68,8.68,0,0,1-8.68-8.68v-54a8.69,8.69,0,1,1,17.37,0v54a8.69,8.69,0,0,1-8.69,8.68"/></g><g id="g728"><path id="path730" class="cls-1" d="M459.35,234h0a8.68,8.68,0,0,1-8.68-8.68v-4.49a8.69,8.69,0,0,1,17.37,0v4.49a8.69,8.69,0,0,1-8.69,8.68"/></g><g id="g732"><path id="path734" class="cls-1" d="M459.35,204h0a8.68,8.68,0,0,1-8.68-8.68V184.43a8.69,8.69,0,0,1,17.37,0v10.85a8.69,8.69,0,0,1-8.69,8.68"/></g><g id="g736"><path id="path738" class="cls-1" d="M387.09,534.41h0a8.68,8.68,0,0,1-8.68-8.68V443.89a8.68,8.68,0,0,1,8.68-8.68h0a8.68,8.68,0,0,1,8.69,8.68v81.84a8.69,8.69,0,0,1-8.69,8.68"/></g><g id="g740"><path id="path742" class="cls-1" d="M387.09,677.66h0a8.68,8.68,0,0,1-8.68-8.68V615a8.69,8.69,0,0,1,8.68-8.69h0a8.69,8.69,0,0,1,8.69,8.69v54a8.69,8.69,0,0,1-8.69,8.68"/></g><g id="g744"><path id="path746" class="cls-1" d="M387.09,716.3h0a8.69,8.69,0,0,1-8.68-8.69V694.15a8.69,8.69,0,0,1,8.68-8.69h0a8.69,8.69,0,0,1,8.69,8.69v13.46a8.69,8.69,0,0,1-8.69,8.69"/></g><g id="g748"><path id="path750" class="cls-1" d="M387.09,599.42h0a8.68,8.68,0,0,1-8.68-8.68v-5.22a8.68,8.68,0,0,1,8.68-8.68h0a8.68,8.68,0,0,1,8.69,8.68v5.22a8.69,8.69,0,0,1-8.69,8.68"/></g><g id="g752"><path id="path754" class="cls-1" d="M387.09,568.27h0a8.69,8.69,0,0,1-8.68-8.69v-5.21a8.69,8.69,0,0,1,8.68-8.69h0a8.69,8.69,0,0,1,8.69,8.69v5.21a8.69,8.69,0,0,1-8.69,8.69"/></g><g id="g756"><path id="path758" class="cls-1" d="M387.09,850.54h0a8.69,8.69,0,0,1-8.68-8.69v-104a8.68,8.68,0,0,1,8.68-8.68h0a8.68,8.68,0,0,1,8.69,8.68v104a8.69,8.69,0,0,1-8.69,8.69"/></g><g id="g760"><path id="path762" class="cls-1" d="M387.09,897.49h0a8.68,8.68,0,0,1-8.68-8.68V873.34a8.68,8.68,0,0,1,8.68-8.68h0a8.69,8.69,0,0,1,8.69,8.68v15.47a8.69,8.69,0,0,1-8.69,8.68"/></g><g id="g764"><path id="path766" class="cls-1" d="M387.09,167.29h0a8.68,8.68,0,0,1-8.68-8.68v-44.2a8.68,8.68,0,0,1,8.68-8.68h0a8.69,8.69,0,0,1,8.69,8.68v44.2a8.69,8.69,0,0,1-8.69,8.68"/></g><g id="g768"><path id="path770" class="cls-1" d="M387.09,318.34h0a8.68,8.68,0,0,1-8.68-8.68v-54a8.69,8.69,0,0,1,8.68-8.69h0a8.69,8.69,0,0,1,8.69,8.69v54a8.69,8.69,0,0,1-8.69,8.68"/></g><g id="g772"><path id="path774" class="cls-1" d="M387.09,234h0a8.68,8.68,0,0,1-8.68-8.68v-4.49a8.68,8.68,0,0,1,8.68-8.68h0a8.69,8.69,0,0,1,8.69,8.68v4.49a8.69,8.69,0,0,1-8.69,8.68"/></g><g id="g776"><path id="path778" class="cls-1" d="M387.09,204h0a8.68,8.68,0,0,1-8.68-8.68V184.43a8.68,8.68,0,0,1,8.68-8.68h0a8.69,8.69,0,0,1,8.69,8.68v10.85a8.69,8.69,0,0,1-8.69,8.68"/></g><g id="g784"><path id="path786" class="cls-1" d="M423.22,234h0a8.68,8.68,0,0,1-8.68-8.68V114.41a8.69,8.69,0,0,1,17.37,0V225.34a8.69,8.69,0,0,1-8.69,8.68"/></g><g id="g788"><path id="path790" class="cls-1" d="M423.22,259.74h0a8.69,8.69,0,1,1,8.69-8.68,8.68,8.68,0,0,1-8.69,8.68"/></g><g id="g792"><path id="path794" class="cls-1" d="M423.22,89.34h0a8.69,8.69,0,0,1-8.68-8.69v-30a8.69,8.69,0,1,1,17.37,0v30a8.69,8.69,0,0,1-8.69,8.69"/></g><g id="g796"><path id="path798" class="cls-1" d="M423.22,30h0a8.69,8.69,0,0,1-8.68-8.69V8.69a8.69,8.69,0,1,1,17.37,0V21.26A8.69,8.69,0,0,1,423.22,30"/></g><g id="g800"><path id="path802" class="cls-1" d="M423.22,318.34h0a8.68,8.68,0,0,1-8.68-8.68V274.89a8.69,8.69,0,1,1,17.37,0v34.77a8.69,8.69,0,0,1-8.69,8.68"/></g><g id="g804"><path id="path806" class="cls-1" d="M755.77,526.6h0a8.69,8.69,0,0,1-8.69-8.68V467.13a8.69,8.69,0,0,1,17.37,0v50.79a8.68,8.68,0,0,1-8.68,8.68"/></g><g id="g808"><path id="path810" class="cls-1" d="M788.7,526.64h0A8.68,8.68,0,0,1,780,518V484.19a8.69,8.69,0,1,1,17.37,0V518a8.69,8.69,0,0,1-8.69,8.68"/></g><g id="g812"><path id="path814" class="cls-1" d="M657,526.61h0a8.68,8.68,0,0,1-8.68-8.68V484.19a8.69,8.69,0,1,1,17.37,0v33.74a8.69,8.69,0,0,1-8.69,8.68"/></g><g id="g816"><path id="path818" class="cls-1" d="M821.64,526.61h0a8.67,8.67,0,0,1-8.68-8.68V493a8.68,8.68,0,0,1,8.68-8.68h0a8.68,8.68,0,0,1,8.68,8.68v24.9a8.67,8.67,0,0,1-8.68,8.68"/></g><g id="g820"><path id="path822" class="cls-1" d="M624,526.61h0a8.68,8.68,0,0,1-8.69-8.68V493a8.69,8.69,0,0,1,17.37,0v24.9a8.67,8.67,0,0,1-8.68,8.68"/></g><g id="g824"><path id="path826" class="cls-1" d="M689.9,526.6h0a8.69,8.69,0,0,1-8.69-8.68V467.13a8.69,8.69,0,0,1,8.69-8.68h0a8.68,8.68,0,0,1,8.68,8.68v50.79a8.68,8.68,0,0,1-8.68,8.68"/></g><g id="g828"><path id="path830" class="cls-1" d="M722.83,526.6h0a8.68,8.68,0,0,1-8.68-8.68v-87a8.69,8.69,0,0,1,8.68-8.69h0a8.69,8.69,0,0,1,8.69,8.69v87a8.69,8.69,0,0,1-8.69,8.68"/></g><g id="g832"><path id="path834" class="cls-1" d="M1058.57,534.41h0a8.68,8.68,0,0,1-8.68-8.68V443.89a8.68,8.68,0,0,1,8.68-8.68h0a8.68,8.68,0,0,1,8.69,8.68v81.84a8.69,8.69,0,0,1-8.69,8.68"/></g><g id="g836"><path id="path838" class="cls-1" d="M1058.57,685.46h0a8.68,8.68,0,0,1-8.68-8.68v-54a8.69,8.69,0,0,1,8.68-8.69h0a8.69,8.69,0,0,1,8.69,8.69v54a8.69,8.69,0,0,1-8.69,8.68"/></g><g id="g840"><path id="path842" class="cls-1" d="M1058.57,716.46h0a8.69,8.69,0,0,1-8.68-8.69v-4.48a8.69,8.69,0,0,1,8.68-8.69h0a8.69,8.69,0,0,1,8.69,8.69v4.48a8.69,8.69,0,0,1-8.69,8.69"/></g><g id="g844"><path id="path846" class="cls-1" d="M1058.57,601.14h0a8.68,8.68,0,0,1-8.68-8.68V588a8.68,8.68,0,0,1,8.68-8.68h0a8.69,8.69,0,0,1,8.69,8.68v4.49a8.69,8.69,0,0,1-8.69,8.68"/></g><g id="g848"><path id="path850" class="cls-1" d="M1058.57,571.08h0a8.68,8.68,0,0,1-8.68-8.68V551.55a8.69,8.69,0,0,1,17.37,0V562.4a8.69,8.69,0,0,1-8.69,8.68"/></g><g id="g852"><path id="path854" class="cls-1" d="M1058.86,729.18h-.57a8.4,8.4,0,0,0-8.4,8.4V889.09a8.4,8.4,0,0,0,8.4,8.4h.57a8.4,8.4,0,0,0,8.4-8.4V737.58a8.4,8.4,0,0,0-8.4-8.4"/></g><g id="g856"><path id="path858" class="cls-1" d="M1058.57,167.29h0a8.68,8.68,0,0,1-8.68-8.68v-44.2a8.68,8.68,0,0,1,8.68-8.68h0a8.69,8.69,0,0,1,8.69,8.68v44.2a8.69,8.69,0,0,1-8.69,8.68"/></g><g id="g860"><path id="path862" class="cls-1" d="M1058.57,318.34h0a8.68,8.68,0,0,1-8.68-8.68v-54a8.69,8.69,0,0,1,8.68-8.69h0a8.69,8.69,0,0,1,8.69,8.69v54a8.69,8.69,0,0,1-8.69,8.68"/></g><g id="g864"><path id="path866" class="cls-1" d="M1058.57,234h0a8.68,8.68,0,0,1-8.68-8.68v-4.49a8.68,8.68,0,0,1,8.68-8.68h0a8.69,8.69,0,0,1,8.69,8.68v4.49a8.69,8.69,0,0,1-8.69,8.68"/></g><g id="g868"><path id="path870" class="cls-1" d="M1058.57,204h0a8.68,8.68,0,0,1-8.68-8.68V184.43a8.69,8.69,0,0,1,17.37,0v10.85a8.69,8.69,0,0,1-8.69,8.68"/></g><g id="g872"><path id="path874" class="cls-1" d="M986.31,534.41h0a8.68,8.68,0,0,1-8.68-8.68V443.89a8.69,8.69,0,0,1,17.37,0v81.84a8.69,8.69,0,0,1-8.69,8.68"/></g><g id="g876"><path id="path878" class="cls-1" d="M986.31,677.66h0a8.68,8.68,0,0,1-8.68-8.68V615A8.69,8.69,0,1,1,995,615v54a8.69,8.69,0,0,1-8.69,8.68"/></g><g id="g880"><path id="path882" class="cls-1" d="M986.31,716.3h0a8.69,8.69,0,0,1-8.68-8.69V694.15a8.69,8.69,0,1,1,17.37,0v13.46a8.69,8.69,0,0,1-8.69,8.69"/></g><g id="g884"><path id="path886" class="cls-1" d="M986.31,599.42h0a8.68,8.68,0,0,1-8.68-8.68v-5.22a8.69,8.69,0,0,1,17.37,0v5.22a8.69,8.69,0,0,1-8.69,8.68"/></g><g id="g888"><path id="path890" class="cls-1" d="M986.31,568.27h0a8.69,8.69,0,0,1-8.68-8.69v-5.21a8.69,8.69,0,1,1,17.37,0v5.21a8.69,8.69,0,0,1-8.69,8.69"/></g><g id="g892"><path id="path894" class="cls-1" d="M986.31,850.54h0a8.69,8.69,0,0,1-8.68-8.69v-104a8.69,8.69,0,0,1,17.37,0v104a8.69,8.69,0,0,1-8.69,8.69"/></g><g id="g896"><path id="path898" class="cls-1" d="M986.31,897.49h0a8.68,8.68,0,0,1-8.68-8.68V873.34a8.69,8.69,0,0,1,17.37,0v15.47a8.69,8.69,0,0,1-8.69,8.68"/></g><g id="g900"><path id="path902" class="cls-1" d="M986.31,167.29h0a8.68,8.68,0,0,1-8.68-8.68v-44.2a8.69,8.69,0,0,1,17.37,0v44.2a8.69,8.69,0,0,1-8.69,8.68"/></g><g id="g904"><path id="path906" class="cls-1" d="M986.31,318.34h0a8.68,8.68,0,0,1-8.68-8.68v-54a8.69,8.69,0,1,1,17.37,0v54a8.69,8.69,0,0,1-8.69,8.68"/></g><g id="g908"><path id="path910" class="cls-1" d="M986.31,234h0a8.68,8.68,0,0,1-8.68-8.68v-4.49a8.69,8.69,0,0,1,17.37,0v4.49a8.69,8.69,0,0,1-8.69,8.68"/></g><g id="g912"><path id="path914" class="cls-1" d="M986.31,204h0a8.68,8.68,0,0,1-8.68-8.68V184.43a8.69,8.69,0,0,1,17.37,0v10.85a8.69,8.69,0,0,1-8.69,8.68"/></g><g id="g920"><path id="path922" class="cls-1" d="M1022.44,234h0a8.68,8.68,0,0,1-8.68-8.68V114.41a8.69,8.69,0,0,1,17.37,0V225.34a8.69,8.69,0,0,1-8.69,8.68"/></g><g id="g924"><path id="path926" class="cls-1" d="M1022.44,259.74h0a8.69,8.69,0,1,1,8.69-8.68,8.68,8.68,0,0,1-8.69,8.68"/></g><g id="g928"><path id="path930" class="cls-1" d="M1022.44,89.34h0a8.69,8.69,0,0,1-8.68-8.69v-30a8.69,8.69,0,1,1,17.37,0v30a8.69,8.69,0,0,1-8.69,8.69"/></g><g id="g932"><path id="path934" class="cls-1" d="M1022.44,30h0a8.69,8.69,0,0,1-8.68-8.69V8.69a8.69,8.69,0,1,1,17.37,0V21.26a8.69,8.69,0,0,1-8.69,8.69"/></g><g id="g936"><path id="path938" class="cls-1" d="M1022.44,318.34h0a8.68,8.68,0,0,1-8.68-8.68V274.89a8.69,8.69,0,1,1,17.37,0v34.77a8.69,8.69,0,0,1-8.69,8.68"/></g><g id="g940"><path id="path942" class="cls-1" d="M591.09,487.36h0a8.69,8.69,0,0,1,8.69,8.69V518a8.69,8.69,0,0,1-8.69,8.68h0a8.68,8.68,0,0,1-8.68-8.68V496.05a8.69,8.69,0,0,1,8.68-8.69"/></g><g id="g944"><path id="path946" class="cls-1" d="M558.16,475.5h0a8.68,8.68,0,0,1,8.68,8.69v33.73a8.69,8.69,0,0,1-17.37,0V484.19a8.69,8.69,0,0,1,8.69-8.69"/></g><g id="g948"><path id="path950" class="cls-1" d="M854.57,487.34h0a8.69,8.69,0,0,1,8.69,8.69V518a8.69,8.69,0,0,1-17.37,0V496a8.69,8.69,0,0,1,8.68-8.69"/></g><g id="g952"><path id="path954" class="cls-1" d="M887.51,475.5h0a8.68,8.68,0,0,1,8.68,8.69v33.75a8.69,8.69,0,0,1-17.37,0V484.19a8.69,8.69,0,0,1,8.69-8.69"/></g><g id="g956"><path id="path958" class="cls-1" d="M467.07,374.38a43.85,43.85,0,1,0-43.85,43.85,43.84,43.84,0,0,0,43.85-43.85"/></g><g id="g960"><path id="path962" class="cls-1" d="M1066.29,374.38a43.85,43.85,0,1,0-43.85,43.85,43.84,43.84,0,0,0,43.85-43.85"/></g><g id="g964"><path id="path966" class="cls-1" d="M783.54,720.75a60.71,60.71,0,1,0-60.71,60.7,60.71,60.71,0,0,0,60.71-60.7"/></g><rect class="cls-1" x="414.54" y="432.09" width="17.37" height="465.4" rx="5.81"/><rect class="cls-1" x="1013.76" y="432.09" width="17.37" height="465.4" rx="5.81"/><path class="cls-1" d="M13.05,1581.27H4.49A4.49,4.49,0,0,1,0,1576.79V1486.4a4.49,4.49,0,0,1,4.49-4.49h8.56a4.48,4.48,0,0,1,4.48,4.49V1523H61.3V1486.4a4.49,4.49,0,0,1,4.49-4.49h8.69A4.49,4.49,0,0,1,79,1486.4v90.39a4.49,4.49,0,0,1-4.49,4.48H65.79a4.49,4.49,0,0,1-4.49-4.48v-37.66H17.53v37.66A4.48,4.48,0,0,1,13.05,1581.27Z"/><path class="cls-1" d="M107,1545V1486.4a4.49,4.49,0,0,1,4.49-4.49H120a4.48,4.48,0,0,1,4.48,4.49v57.49q0,10.6,5.65,16.31t16.24,5.71q10.46,0,16.17-5.78t5.71-16.24V1486.4a4.49,4.49,0,0,1,4.49-4.49h8.56a4.49,4.49,0,0,1,4.49,4.49V1545q0,11.55-4.83,20a33.31,33.31,0,0,1-13.66,13.18q-8.83,4.69-20.93,4.69t-20.93-4.62a32.7,32.7,0,0,1-13.66-13.18A40.3,40.3,0,0,1,107,1545Z"/><path class="cls-1" d="M226.72,1581.27h-8.29a4.49,4.49,0,0,1-4.49-4.48V1486.4a4.49,4.49,0,0,1,4.49-4.49h10.5a4.5,4.5,0,0,1,3.74,2l50.32,76h-5.17V1486.4a4.49,4.49,0,0,1,4.49-4.49h8.29a4.49,4.49,0,0,1,4.49,4.49v90.39a4.49,4.49,0,0,1-4.49,4.48H280.23a4.51,4.51,0,0,1-3.74-2l-50.32-75.88h5v73.4A4.48,4.48,0,0,1,226.72,1581.27Z"/><path class="cls-1" d="M367.53,1496.73q-9.91,0-16.78,4.41a28.54,28.54,0,0,0-10.54,12.44,44.82,44.82,0,0,0-3.67,18.76q0,11,4,18.62a27.72,27.72,0,0,0,10.94,11.55,31.89,31.89,0,0,0,16,3.94,35.29,35.29,0,0,0,11.62-1.76,24.27,24.27,0,0,0,8.63-5,21.81,21.81,0,0,0,5.44-8,28.16,28.16,0,0,0,1.9-10.67v-8.56l8.43,8.42H369.71a4.49,4.49,0,0,1-4.49-4.48v-6.53a4.49,4.49,0,0,1,4.49-4.48h37.37a4.49,4.49,0,0,1,4.49,4.48v46.9a4.49,4.49,0,0,1-4.49,4.48h-6.27a4.48,4.48,0,0,1-4.46-4l-1.23-12,2,2.18a22,22,0,0,1-6.79,7.95,35.86,35.86,0,0,1-11,5.44,47,47,0,0,1-13.87,2,47.62,47.62,0,0,1-24.6-6.32,43.51,43.51,0,0,1-16.72-17.81q-6-11.49-6-26.71t6.19-26.84a45.53,45.53,0,0,1,17.39-18.22q11.22-6.58,26-6.59a50.2,50.2,0,0,1,20.8,4.15,39.47,39.47,0,0,1,15.16,11.68,35,35,0,0,1,6.09,12,4.47,4.47,0,0,1-4.34,5.64h-9.69a4.46,4.46,0,0,1-4.18-2.77,19.65,19.65,0,0,0-8.34-10.08A30.16,30.16,0,0,0,367.53,1496.73Z"/><path class="cls-1" d="M442.51,1581.27h-8.65a4.49,4.49,0,0,1-4.23-6l32.52-90.39a4.49,4.49,0,0,1,4.23-3h11.77a4.49,4.49,0,0,1,4.22,3L515,1575.26a4.48,4.48,0,0,1-4.22,6h-8.91a4.5,4.5,0,0,1-4.24-3l-7-19.84h-37l-7,19.84A4.48,4.48,0,0,1,442.51,1581.27ZM470,1512l-11.15,31.53h26.78L474.37,1512c-.46-1.36-.89-2.74-1.29-4.15a35.75,35.75,0,0,1-.89-3.6c-.18.91-.45,2.06-.81,3.47S470.56,1510.5,470,1512Z"/><path class="cls-1" d="M549.53,1581.27H541a4.49,4.49,0,0,1-4.49-4.48V1486.4a4.49,4.49,0,0,1,4.49-4.49h33.44q17,0,26.43,8.16t9.45,22.83q0,10.06-4.55,17a29.43,29.43,0,0,1-13.39,10.74l15.93,34.26a4.49,4.49,0,0,1-4.07,6.38h-9.38a4.47,4.47,0,0,1-4.08-2.63l-15.66-34.48H554v32.63A4.49,4.49,0,0,1,549.53,1581.27Zm4.49-83.73v31.13h20.39q8.15,0,12.77-4.15t4.62-11.62q0-7.47-4.55-11.42t-12.84-3.94Z"/><path class="cls-1" d="M656,1542.13l-29.85-53.55a4.48,4.48,0,0,1,3.92-6.67h9.39a4.49,4.49,0,0,1,4,2.36l18.16,33.66c.73,1.36,1.36,2.63,1.91,3.81s1,2.36,1.49,3.53c.45-.82.84-1.58,1.16-2.31s.68-1.5,1.08-2.31l1.43-2.85,18-33.53a4.5,4.5,0,0,1,4-2.36h8.87a4.49,4.49,0,0,1,3.92,6.67l-29.74,53.55v34.66a4.49,4.49,0,0,1-4.49,4.48h-8.69a4.49,4.49,0,0,1-4.49-4.48Z"/><path class="cls-1" d="M788.35,1555.92a20.91,20.91,0,0,1-10.81-2.92,22.79,22.79,0,0,1-7.95-7.75,19.63,19.63,0,0,1-3-10.53,20.14,20.14,0,0,1,3-10.81,23.4,23.4,0,0,1,7.95-7.81,20.59,20.59,0,0,1,10.81-3,19.91,19.91,0,0,1,10.67,3,23.1,23.1,0,0,1,7.75,7.88,20.62,20.62,0,0,1,2.92,10.74,19.63,19.63,0,0,1-3,10.53,23.28,23.28,0,0,1-7.82,7.75A20,20,0,0,1,788.35,1555.92Z"/><path class="cls-1" d="M889.48,1509.64a26.84,26.84,0,0,1,4.48-15.36,30.42,30.42,0,0,1,12.5-10.47,42.45,42.45,0,0,1,18.35-3.8,40.65,40.65,0,0,1,17.61,3.53A27.09,27.09,0,0,1,954,1493.67a28.44,28.44,0,0,1,3.9,10.35,4.48,4.48,0,0,1-4.44,5.21h-8.71a4.56,4.56,0,0,1-4.37-3.49,12.3,12.3,0,0,0-4.12-6.5q-4.35-3.6-11.55-3.6-8,0-12.85,3.6a11.65,11.65,0,0,0-4.82,9.85q0,5.31,2.92,8.36t9.18,4.42l15.63,3.54q12.63,2.71,19,9.31t6.32,17.87a28.59,28.59,0,0,1-4.55,16,29.56,29.56,0,0,1-12.71,10.67,45.69,45.69,0,0,1-19.17,3.74,44.43,44.43,0,0,1-18.55-3.61,28.82,28.82,0,0,1-12.37-10.12,26,26,0,0,1-4-10A4.53,4.53,0,0,1,893,1554h8.73a4.58,4.58,0,0,1,4.37,3.48,11.51,11.51,0,0,0,4.4,6.31q4.76,3.54,13.19,3.53t13.66-3.53a11.14,11.14,0,0,0,5.09-9.65,11.47,11.47,0,0,0-2.71-8c-1.82-2-4.76-3.45-8.84-4.35l-15.63-3.4q-12.78-2.71-19.3-9.92T889.48,1509.64Z"/><path class="cls-1" d="M1042.66,1581.27H980.13a4.49,4.49,0,0,1-4.48-4.48v-10.5a4.45,4.45,0,0,1,.87-2.65l48.06-65.55H981.09a4.49,4.49,0,0,1-4.49-4.49v-7.2a4.49,4.49,0,0,1,4.49-4.49H1042a4.48,4.48,0,0,1,4.48,4.49v9.68a4.51,4.51,0,0,1-.86,2.65L997,1565.1h45.67a4.49,4.49,0,0,1,4.49,4.48v7.21A4.49,4.49,0,0,1,1042.66,1581.27Z"/><path class="cls-1" d="M1126.52,1581.27h-52.87a4.49,4.49,0,0,1-4.49-4.48V1486.4a4.49,4.49,0,0,1,4.49-4.49h52.74a4.48,4.48,0,0,1,4.48,4.49v7.2a4.48,4.48,0,0,1-4.48,4.49h-45.81l6.12-5.58v30.86h35.07a4.49,4.49,0,0,1,4.48,4.48v6.53a4.49,4.49,0,0,1-4.48,4.48H1086.7v31.81l-6.12-5.57h45.94a4.49,4.49,0,0,1,4.49,4.48v7.21A4.49,4.49,0,0,1,1126.52,1581.27Z"/><path class="cls-1" d="M1200.19,1496.73q-9.92,0-16.78,4.41a28.54,28.54,0,0,0-10.54,12.44,44.82,44.82,0,0,0-3.67,18.76q0,11,4,18.62a27.72,27.72,0,0,0,10.94,11.55,31.89,31.89,0,0,0,16,3.94,35.29,35.29,0,0,0,11.62-1.76,24.4,24.4,0,0,0,8.64-5,21.9,21.9,0,0,0,5.43-8,28.15,28.15,0,0,0,1.91-10.67v-8.56l8.42,8.42h-33.84a4.49,4.49,0,0,1-4.49-4.48v-6.53a4.49,4.49,0,0,1,4.49-4.48h37.38a4.49,4.49,0,0,1,4.48,4.48v46.9a4.49,4.49,0,0,1-4.48,4.48h-6.28a4.48,4.48,0,0,1-4.46-4l-1.22-12,2,2.18a22,22,0,0,1-6.79,7.95,35.86,35.86,0,0,1-11,5.44,47,47,0,0,1-13.87,2,47.62,47.62,0,0,1-24.6-6.32,43.51,43.51,0,0,1-16.72-17.81q-6-11.49-6-26.71t6.19-26.84a45.49,45.49,0,0,1,17.4-18.22q11.2-6.58,26-6.59a50.17,50.17,0,0,1,20.8,4.15,39.47,39.47,0,0,1,15.16,11.68,35,35,0,0,1,6.09,12,4.47,4.47,0,0,1-4.34,5.64h-9.68a4.46,4.46,0,0,1-4.19-2.77,19.65,19.65,0,0,0-8.34-10.08A30.16,30.16,0,0,0,1200.19,1496.73Z"/><path class="cls-1" d="M1331.09,1581.27h-52.88a4.49,4.49,0,0,1-4.48-4.48V1486.4a4.49,4.49,0,0,1,4.48-4.49H1331a4.49,4.49,0,0,1,4.49,4.49v7.2a4.49,4.49,0,0,1-4.49,4.49h-45.81l6.12-5.58v30.86h35.07a4.48,4.48,0,0,1,4.48,4.48v6.53a4.48,4.48,0,0,1-4.48,4.48h-35.07v31.81l-6.12-5.57h45.95a4.49,4.49,0,0,1,4.48,4.48v7.21A4.49,4.49,0,0,1,1331.09,1581.27Z"/><path class="cls-1" d="M1397,1581.27h-31.4a4.49,4.49,0,0,1-4.49-4.48V1486.4a4.49,4.49,0,0,1,4.49-4.49h30.31q14.82,0,26,6.25a44.91,44.91,0,0,1,17.47,17.54q6.32,11.28,6.32,26.09,0,14.55-6.19,25.7a45,45,0,0,1-17.12,17.46Q1411.41,1581.27,1397,1581.27Zm-18.35-91.34v83.46l-8.29-8.29h25q9.91,0,17-4.08a27.79,27.79,0,0,0,10.94-11.55,38,38,0,0,0,3.87-17.68q0-10.45-4-18a28.17,28.17,0,0,0-11.28-11.63q-7.28-4.08-17.47-4.07h-24.05Z"/><path class="cls-1" d="M381.2,1240.27q0,37.89-15.43,66.89a113.15,113.15,0,0,1-42.92,45.27q-27.5,16.26-63.7,16.26-35.88,0-63.21-16.26a112.6,112.6,0,0,1-42.58-45.1q-15.26-28.83-15.25-66.72t15.42-66.9a113.53,113.53,0,0,1,42.75-45.26q27.33-16.26,63.2-16.26,36.21,0,63.54,16.26a113.75,113.75,0,0,1,42.75,45.1Q381.19,1202.38,381.2,1240.27Zm-57.34,0q0-23.8-7.71-40.74t-22-26q-14.26-9.06-34.37-9.06t-34.54,9.06q-14.42,9-22.13,26t-7.71,40.74q0,23.81,7.71,40.91t22.13,26.15q14.41,9.06,34.54,9.05t34.37-9.22q14.25-9.21,22-26.32T323.86,1240.27Z"/><path class="cls-1" d="M804.3,1364.51H656.17a7.45,7.45,0,0,1-7.45-7.44v-8.9a7.44,7.44,0,0,1,2.55-5.61l76.72-67q17.29-14.88,28.38-26.31a145.84,145.84,0,0,0,17.31-20.94A67,67,0,0,0,785.44,1189q0-24.93-14.19-39.46T732.14,1135q-25.27,0-41,17.31-13.86,15.24-16.06,39.34a7.4,7.4,0,0,1-7.4,6.69h-10a7.46,7.46,0,0,1-7.43-8.11q1.9-20.94,10.78-37.23a76.08,76.08,0,0,1,29.08-30.11q18.51-10.73,42.74-10.73,23.19,0,40.67,9.51A69.93,69.93,0,0,1,800.85,1148q9.85,16.8,9.86,39.63a86.12,86.12,0,0,1-14.54,48.81,170.21,170.21,0,0,1-20.24,24.92q-12.64,13.16-31.33,29.42l-68.88,60.57-7.61-10H804.3a7.45,7.45,0,0,1,7.45,7.45v8.3A7.44,7.44,0,0,1,804.3,1364.51Z"/><path class="cls-1" d="M846.33,1241q0-38.78,11.59-67.67t33.57-45q22-16.1,52.44-16.09t52.44,16.09q22,16.1,33.58,45t11.59,67.67q0,38.76-11.59,67.66t-33.41,44.83q-21.79,15.91-52.61,15.92t-52.61-15.92q-21.81-15.92-33.4-44.83T846.33,1241Zm24.57,0q0,31.85,8.31,55.72T904,1333.53q16.42,13,40,13t40-13q16.44-13,24.75-36.86T1017,1241q0-32.19-8.31-56.08T983.91,1148q-16.44-13-40-13t-40,13q-16.46,13-24.75,36.86T870.9,1241Z"/><path class="cls-1" d="M1233.43,1364.51H1085.29a7.44,7.44,0,0,1-7.44-7.44v-8.9a7.43,7.43,0,0,1,2.54-5.61l76.72-67q17.3-14.88,28.38-26.31a145.84,145.84,0,0,0,17.31-20.94,67.12,67.12,0,0,0,11.77-39.28q0-24.93-14.2-39.46T1161.26,1135q-25.26,0-41,17.31-13.87,15.24-16.07,39.34a7.4,7.4,0,0,1-7.4,6.69h-10a7.46,7.46,0,0,1-7.43-8.11q1.9-20.94,10.78-37.23a76.08,76.08,0,0,1,29.08-30.11q18.51-10.73,42.74-10.73,23.19,0,40.67,9.51A69.93,69.93,0,0,1,1230,1148q9.87,16.8,9.86,39.63a86.21,86.21,0,0,1-14.53,48.81,171,171,0,0,1-20.25,24.92q-12.65,13.16-31.33,29.42l-68.88,60.57-7.61-10h136.2a7.45,7.45,0,0,1,7.44,7.45v8.3A7.44,7.44,0,0,1,1233.43,1364.51Z"/><path class="cls-1" d="M1439.27,1255.48a71.37,71.37,0,0,0-18-24.4,79.88,79.88,0,0,0-27.35-15.57,102.67,102.67,0,0,0-27.59-5.16l72-71.4a7.5,7.5,0,0,0,2.2-5.29v-9.53a7.45,7.45,0,0,0-7.45-7.44H1297.36a7.45,7.45,0,0,0-7.45,7.44v7.26a7.46,7.46,0,0,0,7.45,7.45h111.42L1334.5,1212a7.9,7.9,0,0,0-2.36,5.64v6.07a7.92,7.92,0,0,0,7.92,7.92h12.15q33.24,0,50.88,14.71t17.66,40.32q0,27-16.62,43.27t-44.3,16.27q-26.31,0-41.71-15.23-13.38-13.21-15.14-35.06a7.42,7.42,0,0,0-7.4-6.82h-10.06a7.45,7.45,0,0,0-7.44,8q1.44,19.61,10.1,34.61a69.5,69.5,0,0,0,28.73,27.52q18.35,9.51,42.57,9.52,25.26,0,44.65-10a75.25,75.25,0,0,0,30.46-28.38q11.09-18.35,11.08-42.92A76.78,76.78,0,0,0,1439.27,1255.48Z"/><path class="cls-1" d="M121.36,1159.6V1124a7.45,7.45,0,0,0-7.45-7.44H7.45A7.44,7.44,0,0,0,0,1124v35.61a7.45,7.45,0,0,0,7.45,7.45H33.52v147.11H7.45A7.45,7.45,0,0,0,0,1321.61v35.61a7.44,7.44,0,0,0,7.45,7.44H113.91a7.45,7.45,0,0,0,7.45-7.44v-35.61a7.46,7.46,0,0,0-7.45-7.45H87.84V1167.05h26.07A7.46,7.46,0,0,0,121.36,1159.6Z"/><path class="cls-1" d="M519.3,1159.6V1124a7.44,7.44,0,0,0-7.44-7.44H405.39a7.45,7.45,0,0,0-7.45,7.44v35.61a7.46,7.46,0,0,0,7.45,7.45h26.07v147.11H405.39a7.46,7.46,0,0,0-7.45,7.45v35.61a7.45,7.45,0,0,0,7.45,7.44H511.86a7.44,7.44,0,0,0,7.44-7.44v-35.61a7.45,7.45,0,0,0-7.44-7.45H485.78V1167.05h26.08A7.45,7.45,0,0,0,519.3,1159.6Z"/></g></g></svg>